<svg width="32" height="32" viewBox="0 0 32 32" fill="none" xmlns="http://www.w3.org/2000/svg">
<path d="M25.1429 14.8571V17.1429C25.1429 17.6143 24.7571 18 24.2857 18H18V24.2857C18 24.7571 17.6143 25.1429 17.1429 25.1429H14.8571C14.3857 25.1429 14 24.7571 14 24.2857V18H7.71429C7.24286 18 6.85714 17.6143 6.85714 17.1429V14.8571C6.85714 14.3857 7.24286 14 7.71429 14H14V7.71429C14 7.24286 14.3857 6.85714 14.8571 6.85714H17.1429C17.6143 6.85714 18 7.24286 18 7.71429V14H24.2857C24.7571 14 25.1429 14.3857 25.1429 14.8571ZM32 3.42857V28.5714C32 30.4643 30.4643 32 28.5714 32H3.42857C1.53571 32 0 30.4643 0 28.5714V3.42857C0 1.53571 1.53571 0 3.42857 0H28.5714C30.4643 0 32 1.53571 32 3.42857ZM28.5714 28.1429V3.85714C28.5714 3.62143 28.3786 3.42857 28.1429 3.42857H3.85714C3.62143 3.42857 3.42857 3.62143 3.42857 3.85714V28.1429C3.42857 28.3786 3.62143 28.5714 3.85714 28.5714H28.1429C28.3786 28.5714 28.5714 28.3786 28.5714 28.1429Z" fill="white"/>
</svg>
