<svg width="180" height="180" viewBox="0 0 180 180" fill="none" xmlns="http://www.w3.org/2000/svg">
<path d="M100.521 89.9516L132.754 57.7939C134.165 56.3824 134.958 54.468 134.958 52.4718C134.958 50.4756 134.165 48.5612 132.754 47.1496C131.342 45.7381 129.428 44.9451 127.431 44.9451C125.435 44.9451 123.521 45.7381 122.109 47.1496L89.9516 79.3823L57.7939 47.1496C56.3824 45.7381 54.468 44.9451 52.4718 44.9451C50.4756 44.9451 48.5612 45.7381 47.1497 47.1496C45.7381 48.5612 44.9452 50.4756 44.9452 52.4718C44.9452 54.468 45.7381 56.3824 47.1497 57.7939L79.3823 89.9516L47.1497 122.109C46.4471 122.806 45.8894 123.635 45.5089 124.549C45.1283 125.462 44.9324 126.442 44.9324 127.431C44.9324 128.421 45.1283 129.401 45.5089 130.314C45.8894 131.228 46.4471 132.057 47.1497 132.754C47.8465 133.456 48.6756 134.014 49.589 134.394C50.5025 134.775 51.4822 134.971 52.4718 134.971C53.4614 134.971 54.4411 134.775 55.3546 134.394C56.268 134.014 57.0971 133.456 57.7939 132.754L89.9516 100.521L122.109 132.754C122.806 133.456 123.635 134.014 124.549 134.394C125.462 134.775 126.442 134.971 127.431 134.971C128.421 134.971 129.401 134.775 130.314 134.394C131.228 134.014 132.057 133.456 132.754 132.754C133.456 132.057 134.014 131.228 134.394 130.314C134.775 129.401 134.971 128.421 134.971 127.431C134.971 126.442 134.775 125.462 134.394 124.549C134.014 123.635 133.456 122.806 132.754 122.109L100.521 89.9516Z" fill="white"/>
</svg>
