<svg width="32" height="29" viewBox="0 0 32 29" fill="none" xmlns="http://www.w3.org/2000/svg">
<path d="M3.20165 0H4.80247C6.48945 0 7.87304 1.30691 7.99533 2.96282L8.00412 3.20165V25.6132C8.00412 27.3002 6.69721 28.6837 5.0413 28.806L4.80247 28.8148H3.20165C1.51467 28.8148 0.131082 27.5079 0.0087871 25.852L0 25.6132V3.20165C0 1.51467 1.30691 0.131082 2.96282 0.0087871L3.20165 0ZM12.8066 0H14.4074C16.0944 0 17.478 1.30691 17.6003 2.96282L17.6091 3.20165V25.6132C17.6091 27.3002 16.3022 28.6837 14.6462 28.806L14.4074 28.8148H12.8066C11.1196 28.8148 9.73602 27.5079 9.61373 25.852L9.60494 25.6132V3.20165C9.60494 1.51467 10.9118 0.131082 12.5678 0.0087871L12.8066 0ZM23.9712 3.20245C25.3152 3.20245 26.5456 4.05185 26.9967 5.35694L27.072 5.60688L31.8985 24.4102C32.3187 26.0437 31.397 27.7092 29.8226 28.2388L29.5933 28.3066L28.0421 28.7052C27.7764 28.7724 27.5074 28.806 27.2449 28.806C25.9025 28.806 24.6706 27.9552 24.2207 26.6499L24.1457 26.4L19.3176 7.59831C18.8989 5.96329 19.8192 4.29909 21.3949 3.76969L21.6244 3.7019L23.174 3.3033C23.4397 3.23446 23.7087 3.20245 23.9712 3.20245ZM4.80247 2.40124H3.20165C2.80891 2.40124 2.48195 2.68583 2.41414 3.05825L2.40124 3.20165V25.6132C2.40124 26.0045 2.68456 26.3326 3.05783 26.4006L3.20165 26.4136H4.80247C5.19521 26.4136 5.52217 26.129 5.58998 25.7566L5.60288 25.6132V3.20165C5.60288 2.81033 5.31956 2.48226 4.94629 2.41419L4.80247 2.40124ZM14.4074 2.40124H12.8066C12.4139 2.40124 12.0869 2.68583 12.0191 3.05825L12.0062 3.20165V25.6132C12.0062 26.0045 12.2895 26.3326 12.6628 26.4006L12.8066 26.4136H14.4074C14.8001 26.4136 15.1271 26.129 15.1949 25.7566L15.2078 25.6132V3.20165C15.2078 2.81033 14.9245 2.48226 14.5512 2.41419L14.4074 2.40124ZM23.9728 5.60368L23.8714 5.60989L23.7711 5.6293L22.2215 6.0263C21.9414 6.09834 21.7941 6.28723 21.7301 6.39609C21.6801 6.48061 21.6087 6.6389 21.6189 6.84227L21.6436 7.0028L26.4717 25.8029C26.5774 26.2159 26.9471 26.4048 27.2449 26.4048L27.3449 26.3986L27.445 26.3792L28.9962 25.9806C29.3775 25.8838 29.6236 25.5265 29.5959 25.1492L29.5725 25.0073L24.746 6.20399C24.6388 5.79258 24.2706 5.60368 23.9728 5.60368Z" fill="white"/>
</svg>
