<svg width="32" height="32" viewBox="0 0 32 32" fill="none" xmlns="http://www.w3.org/2000/svg">
<path d="M31.1534 14.4016V29.4039C31.1534 29.7448 31.0862 30.0824 30.9558 30.3974C30.8253 30.7124 30.6341 30.9985 30.393 31.2396C30.1519 31.4807 29.8657 31.6719 29.5508 31.8024C29.2358 31.9329 28.8982 32 28.5573 32H28.557L20.7678 31.9988C20.4236 31.9988 20.0934 31.862 19.85 31.6186C19.6066 31.3751 19.4699 31.045 19.4699 30.7008V20.3163H11.6816V30.7008C11.6816 31.045 11.5448 31.3751 11.3014 31.6186C11.058 31.862 10.7279 31.9988 10.3837 31.9988L2.59644 32C2.25549 32 1.91786 31.9329 1.60285 31.8025C1.28784 31.672 1.0016 31.4808 0.760496 31.2397C0.51939 30.9986 0.328133 30.7124 0.197646 30.3974C0.0671589 30.0824 -1.28139e-06 29.7448 0 29.4039V14.4015C0.000315548 14.0398 0.0760514 13.6822 0.222371 13.3514C0.368691 13.0207 0.58238 12.7241 0.84979 12.4806L13.8293 0.678967C14.306 0.242283 14.9291 4.38561e-05 15.5756 5.95435e-09C16.2221 -4.38442e-05 16.8452 0.242111 17.3221 0.67873L30.3038 12.4806C30.5711 12.7242 30.7847 13.0208 30.931 13.3516C31.0773 13.6823 31.153 14.0399 31.1534 14.4016Z" fill="white"/>
</svg>
